
        <svg xmlns="http://www.w3.org/2000/svg" xmlns:xlink="http://www.w3.org/1999/xlink" version="1.1" width="3162.061084562643" 
        height="980.8383550017443" viewBox="0 -89.13359650945357 3162.061084562643 980.8383550017443">
			
			<g transform="scale(8.103054228132143) translate(10, 10)">
				<defs id="SvgjsDefs1181"></defs><g id="SvgjsG1182" featureKey="symbolFeature-0" transform="matrix(0.18527538941883265,0,0,0.18527538941883265,9.999903437614138,-11)" fill="#ffffff"><g xmlns="http://www.w3.org/2000/svg"><path d="M317.894,169.971c-1.347-28.306-18.204-46.895-51.351-56.621C271.67,145.202,288.527,163.788,317.894,169.971z"></path><path d="M341.788,111.388c2.429-42.244-14.093-70.154-50.364-85.086C289.234,57.962,301.436,94.952,341.788,111.388z"></path><path d="M308.521,301.336c-21.024-10.459-41.042-8.323-60.902,6.484C268.003,318.222,288.023,316.091,308.521,301.336z"></path><path d="M279.073,246.422c3.054-4.967,5.989-9.895,8.813-14.767c-0.037-26.811-11.605-44.725-35.299-54.576   C249.828,209.251,258.324,231.477,279.073,246.422z"></path><path d="M348.054,82.01c4.55-10.044,10.866-18.545,19.007-25.562c0.54-24.278-6.097-43.247-19.789-56.448   c-8.481,13.194-12.259,30.498-11.26,51.51C341.856,60.403,345.872,70.578,348.054,82.01z"></path><path d="M360.617,115.999c25.972,2.939,50.771-7.021,75.325-30.206c-11.858-5.616-23.76-7.188-36.18-4.813   C392.548,96.456,379.477,108.163,360.617,115.999z"></path><path d="M238.925,303.885c2.036-2.554,4.04-5.118,6.014-7.691c-4.83-26.151-20.884-43.51-50.24-54.195   C196.915,276.267,211.43,296.56,238.925,303.885z"></path><path d="M399.346,39.001c4.881-10.743,5.732-21.233,2.558-31.916c-15.657,4.951-24.94,12.745-29.033,24.278   c1.282,5.95,2.02,12.299,2.198,19.044C382.093,45.773,390.178,41.98,399.346,39.001z"></path><path d="M214.021,344.289c-5.041,5.164-10.187,10.131-15.408,14.919c7.381-0.402,14.34,0.282,20.863,2.049   c9.555-9.89,18.672-20.305,27.162-31.03c-3.788-4.18-6.348-8.715-8.025-13.295C230.863,326.255,222.67,335.429,214.021,344.289z"></path><path d="M296.859,317.143c-8.007,3.406-16.036,5.128-24.067,5.128c-8.578,0-17.156-1.945-25.713-5.834   c10.445,22.893,44.145,26.826,73.981,25.339C315.558,330.091,307.59,321.999,296.859,317.143z"></path><path d="M191.235,396.728c-9.568-1.908-17.923-5.439-25.126-10.617c-2.802,2.096-5.609,4.144-8.421,6.148   c7.456,30.125,33.169,43.481,78.466,40.734C226.758,414.775,212.003,402.886,191.235,396.728z"></path><path d="M187.963,368.638c-5.006,4.279-10.063,8.396-15.153,12.358c5.83,3.772,12.516,6.417,20.113,7.923l0.012-0.041   c0.107,0.031,0.209,0.069,0.317,0.1c13.794,2.666,30.553,1.633,50.545-3.089C229.355,369.66,211.02,364.015,187.963,368.638z"></path><path d="M173.338,370.386c8.483-20.608,7.208-39.159-3.935-56.504c-12.927,21.614-14.412,42.357-4.522,63.134   C167.71,374.854,170.53,372.646,173.338,370.386z"></path><path d="M340.634,241.168c-13.48,8.545-27.892,12.856-43.114,12.856c-1.747,0-3.508-0.078-5.276-0.191   c17.331,15.281,51.173,16.986,82.469,3.361C365.376,246.81,354.17,241.56,340.634,241.168z"></path><path d="M375.28,168.028c-12.36,7.965-25.689,11.969-39.887,11.969c-1.002,0-2.011-0.029-3.022-0.069   c15.802,13.13,40.592,15.481,67.9,6.068C393.889,177.17,385.661,171.265,375.28,168.028z"></path><path d="M107.595,414.407c2.881-29.257-4.155-52.746-21.475-71.522c-4.943,24.961-1.368,52.116,10.229,77.6   C100.06,418.537,103.811,416.514,107.595,414.407z"></path><path d="M153.203,385.639c1.725-1.231,3.449-2.474,5.17-3.739c-7.53-15.118-9.65-30.504-6.373-46.016   c-3.77-14.874-12.993-25.201-28.143-31.421C117.309,339.903,126.939,366.516,153.203,385.639z"></path><path d="M113.328,451.285c-8.027,4.39-16.242,8.605-24.634,12.648c25.919,13.199,55.322,16.978,89.452,11.489   C159.396,457.004,138.116,449.102,113.328,451.285z"></path><path d="M150.714,397.134C92.755,436.866,34.708,457.539,7.317,465.857c-2.745,0.834-4.958,2.706-6.233,5.271   s-1.43,5.46-0.437,8.149c1.929,5.228,7.61,7.953,12.935,6.203c54.275-17.827,102.934-41.968,144.738-71.748   C155.06,408.844,152.52,403.314,150.714,397.134z"></path><path d="M89.216,424.161c-5.555-12.125-9.388-24.626-11.454-37.134c-3.985-4.006-8.434-7.367-13.291-10.018   c-3.698,21.47-1.04,39.612,8.076,55.226C77.966,429.724,83.534,427.034,89.216,424.161z"></path><path d="M326.561,154.618c-2.551,5.991-5.314,12.213-8.212,18.491l-24.879,48.924l-35.754,70.476   c6.189-2.821,12.442-4.584,18.748-5.294c5.184-15.415,11.286-29.186,15.123-41.446c20.287,1.661,38.641-4.745,55.745-19.508   c-18.427-7.159-33.623-6.912-47.378,0.653l25.73-50.605c0.729-1.579,1.448-3.155,2.159-4.724   c21.661,2.365,40.72-5.014,57.965-22.455c-21.54-5.115-38.694-1.959-52.281,9.541c0.129-0.302,0.264-0.61,0.392-0.912   c7.2-16.847,16.268-37.351,21.021-48.11c29.362-11.239,43.658-31.582,43.475-61.881c-26.274,9.497-42.071,26.843-48.207,52.852   C347.942,105.734,335.63,133.397,326.561,154.618z"></path></g></g><g id="SvgjsG1183" featureKey="nameFeature-0" transform="matrix(1.2894794005755705,0,0,1.2894794005755705,98.78467385856203,-2.682822442650952)" fill="#a9d2fe"><path d="M16.152 40.39063 c-8.3008 0 -14.434 -5.6641 -14.434 -14.512 c0 -8.8672 6.1328 -14.492 14.434 -14.492 c8.2813 0 14.414 5.625 14.414 14.492 c0 8.8477 -6.1328 14.512 -14.414 14.512 z M16.152 35.0195 c4.8633 0 8.5938 -3.418 8.5938 -9.1406 c0 -5.7031 -3.7305 -9.1016 -8.5938 -9.1016 s-8.5938 3.3984 -8.5938 9.1016 c0 5.7227 3.7305 9.1406 8.5938 9.1406 z M55.2346875 11.777000000000001 l5.8398 0 l0 28.223 l-6.7773 0 l-12.5 -20.176 l0 20.176 l-5.8398 0 l0 -28.223 l6.6992 0 l12.578 20.059 l0 -20.059 z M95.1371875 11.777000000000001 l0 5.1563 l-6.6992 0 l0 23.066 l-5.8008 0 l0 -23.066 l-6.7383 0 l0 -5.1563 l19.238 0 z M117.36296875 11.777000000000001 l5.8594 0 l0 28.223 l-5.8594 0 l0 -11.602 l-11.934 0 l0 11.602 l-5.8594 0 l0 -28.223 l5.8594 0 l0 11.523 l11.934 0 l0 -11.523 z M151.699 11.777000000000001 l-9.2773 14.707 l0 13.516 l-5.8789 0 l0 -13.379 l-9.3359 -14.844 l6.4844 0 l5.7617 9.6094 l5.7813 -9.6094 l6.4648 0 z M188.00771875 40 l-5.8398 0 l-1.8555 -21.27 l-7.1484 21.27 l-3.7891 0 l-7.1484 -21.27 l-1.875 21.27 l-5.8594 0 l2.3633 -28.223 l8.3594 0 l6.0156 17.715 l6.0938 -17.715 l8.3594 0 z M210.50828125 16.934 l-10.469 0 l0 6.4063 l9.2773 0 l0 5.0977 l-9.2773 0 l0 6.3867 l10.469 0 l0 5.1758 l-16.367 0 l0 -28.223 l16.367 0 l0 5.1563 z"></path></g><g id="SvgjsG1184" featureKey="sloganFeature-0" transform="matrix(0.774013094793464,0,0,0.774013094793464,100.1176250830078,63.07105981198709)" fill="#d8e8fb"><path d="M1.14 20 l0 -12.24 l5.8 0 c2.28 0 4.22 1.72 4.22 4.02 c0 2.32 -2 4.02 -4.22 4.02 l-2.8 0 l0 4.2 l-3 0 z M6.94 10.54 l-2.8 0 l0 2.48 l2.8 0 c0.7 0 1.22 -0.54 1.22 -1.24 s-0.52 -1.24 -1.22 -1.24 z M15.4495 7.76 l9.1 0 l0 2.78 l-6.1 0 l0 1.96 l4.9 0 l0 2.78 l-4.9 0 l0 1.94 l6.1 0 l0 2.78 l-9.1 0 l0 -12.24 z M32.039 10.58 l0 2.92 l2.8 0 c0.92 0 1.46 -0.54 1.46 -1.46 s-0.54 -1.46 -1.46 -1.46 l-2.8 0 z M36.579 15.48 c0.56 0.76 1.12 1.52 1.7 2.26 c0.56 0.74 1.12 1.5 1.68 2.26 l-3.66 0 c-0.72 -0.96 -1.42 -1.92 -2.12 -2.88 c-0.7 -0.94 -1.42 -1.9 -2.14 -2.86 l0 5.74 l-3 0 l0 -12.24 l5.8 0 c2.28 0 4.22 1.74 4.22 4.04 c0 1.62 -1 3.04 -2.48 3.68 z M43.4085 19.7 l0 -2.82 c0.24 0.06 0.54 0.12 0.88 0.16 c0.34 0.06 0.7 0.1 1.08 0.12 s0.76 0.04 1.16 0.06 s0.78 0.04 1.12 0.04 c0.94 0 1.6 -0.06 2 -0.16 c0.38 -0.1 0.58 -0.28 0.58 -0.56 c0 -0.24 -0.18 -0.42 -0.36 -0.56 c-0.66 -0.44 -1.44 -0.62 -2.22 -0.8 c-2.2 -0.44 -4.22 -1.32 -4.22 -3.84 c0 -2.98 2.82 -3.68 5.24 -3.68 c1.34 0 2.7 0.14 4 0.46 l0 2.82 c-0.2 -0.06 -0.46 -0.1 -0.78 -0.16 c-0.34 -0.04 -0.68 -0.08 -1.06 -0.12 c-0.78 -0.08 -1.52 -0.12 -2.3 -0.12 c-0.44 0 -1.36 0 -1.78 0.16 c-0.28 0.1 -0.46 0.22 -0.46 0.54 c0 0.16 0.04 0.3 0.12 0.42 c0.08 0.14 0.22 0.24 0.4 0.34 c0.54 0.3 1.24 0.48 1.84 0.62 c0.5 0.12 1 0.26 1.52 0.4 c1.76 0.48 2.92 1.46 2.92 3.34 c0 3.1 -3.08 3.76 -5.56 3.76 c-1.36 0 -2.78 -0.1 -4.12 -0.42 z M63.41799999999999 17.32 c2.18 0 3.3 -1.4 3.3 -3.44 c0 -2.16 -1.2 -3.44 -3.3 -3.44 c-2.2 0 -3.3 1.4 -3.3 3.44 c0 2.12 1.22 3.44 3.3 3.44 z M63.41799999999999 20.1 c-3.76 0 -6.3 -2.56 -6.3 -6.22 c0 -3.78 2.66 -6.22 6.3 -6.22 c3.78 0 6.3 2.54 6.3 6.22 c0 3.8 -2.64 6.22 -6.3 6.22 z M82.16749999999999 7.76 l3 0 l0 12.24 l-3 0 l-4.8 -7.16 l0 7.16 l-3 0 l0 -12.24 l3 0 l4.8 7.16 l0 -7.16 z M97.83699999999999 17.52 l-4.5 0 l-0.88 2.48 l-3.26 0 l4.9 -12.24 l3 0 l4.9 12.24 l-3.28 0 z M94.317 14.74 l2.54 0 l-1.26 -3.56 z M115.10649999999998 17.22 l0 2.78 l-9.1 0 l0 -12.24 l3 0 l0 9.46 l6.1 0 z M136.22549999999998 16.58 l0 3.08 c-1.24 0.34 -2.48 0.48 -3.76 0.48 c-3.76 0 -6.28 -2.58 -6.28 -6.24 c0 -3.76 2.62 -6.24 6.26 -6.24 c1.26 0 2.58 0.1 3.78 0.48 l0 3.08 c-0.98 -0.48 -2.52 -0.66 -3.6 -0.66 c-2.44 0 -3.44 1 -3.44 3.32 c0 2.46 1.18 3.36 3.46 3.36 c1.02 0 2.68 -0.16 3.58 -0.66 z M148.15499999999997 7.76 l3 0 l0 12.24 l-3 0 l0 -4.72 l-4.4 0 l0 4.72 l-3 0 l0 -12.24 l3 0 l0 4.74 l4.4 0 l0 -4.74 z M156.22449999999998 7.76 l9.1 0 l0 2.78 l-6.1 0 l0 1.96 l4.9 0 l0 2.78 l-4.9 0 l0 1.94 l6.1 0 l0 2.78 l-9.1 0 l0 -12.24 z M169.81399999999996 7.76 l9.1 0 l0 2.78 l-6.1 0 l0 1.96 l4.9 0 l0 2.78 l-4.9 0 l0 4.72 l-3 0 l0 -12.24 z M189.99299999999997 19.7 l0 -2.82 c0.24 0.06 0.54 0.12 0.88 0.16 c0.34 0.06 0.7 0.1 1.08 0.12 s0.76 0.04 1.16 0.06 s0.78 0.04 1.12 0.04 c0.94 0 1.6 -0.06 2 -0.16 c0.38 -0.1 0.58 -0.28 0.58 -0.56 c0 -0.24 -0.18 -0.42 -0.36 -0.56 c-0.66 -0.44 -1.44 -0.62 -2.22 -0.8 c-2.2 -0.44 -4.22 -1.32 -4.22 -3.84 c0 -2.98 2.82 -3.68 5.24 -3.68 c1.34 0 2.7 0.14 4 0.46 l0 2.82 c-0.2 -0.06 -0.46 -0.1 -0.78 -0.16 c-0.34 -0.04 -0.68 -0.08 -1.06 -0.12 c-0.78 -0.08 -1.52 -0.12 -2.3 -0.12 c-0.44 0 -1.36 0 -1.78 0.16 c-0.28 0.1 -0.46 0.22 -0.46 0.54 c0 0.16 0.04 0.3 0.12 0.42 c0.08 0.14 0.22 0.24 0.4 0.34 c0.54 0.3 1.24 0.48 1.84 0.62 c0.5 0.12 1 0.26 1.52 0.4 c1.76 0.48 2.92 1.46 2.92 3.34 c0 3.1 -3.08 3.76 -5.56 3.76 c-1.36 0 -2.78 -0.1 -4.12 -0.42 z M204.12249999999997 7.76 l9.1 0 l0 2.78 l-6.1 0 l0 1.96 l4.9 0 l0 2.78 l-4.9 0 l0 1.94 l6.1 0 l0 2.78 l-9.1 0 l0 -12.24 z M220.712 10.58 l0 2.92 l2.8 0 c0.92 0 1.46 -0.54 1.46 -1.46 s-0.54 -1.46 -1.46 -1.46 l-2.8 0 z M225.252 15.48 c0.56 0.76 1.12 1.52 1.7 2.26 c0.56 0.74 1.12 1.5 1.68 2.26 l-3.66 0 c-0.72 -0.96 -1.42 -1.92 -2.12 -2.88 c-0.7 -0.94 -1.42 -1.9 -2.14 -2.86 l0 5.74 l-3 0 l0 -12.24 l5.8 0 c2.28 0 4.22 1.74 4.22 4.04 c0 1.62 -1 3.04 -2.48 3.68 z M240.7815 7.76 l3.28 0 l-4.9 12.24 l-3 0 l-4.9 -12.24 l3.26 0 l3.14 8.82 z M248.111 7.76 l3 0 l0 12.24 l-3 0 l0 -12.24 z M265.7805 16.58 l0 3.08 c-1.24 0.34 -2.48 0.48 -3.76 0.48 c-3.76 0 -6.28 -2.58 -6.28 -6.24 c0 -3.76 2.62 -6.24 6.26 -6.24 c1.26 0 2.58 0.1 3.78 0.48 l0 3.08 c-0.98 -0.48 -2.52 -0.66 -3.6 -0.66 c-2.44 0 -3.44 1 -3.44 3.32 c0 2.46 1.18 3.36 3.46 3.36 c1.02 0 2.68 -0.16 3.58 -0.66 z M270.31 7.76 l9.1 0 l0 2.78 l-6.1 0 l0 1.96 l4.9 0 l0 2.78 l-4.9 0 l0 1.94 l6.1 0 l0 2.78 l-9.1 0 l0 -12.24 z"></path></g>
			</g>
		</svg>
	