<svg xmlns="http://www.w3.org/2000/svg"  viewBox="0 0 16 16" width="16px" height="16px"><path d="M 2.5 2 C 1.675781 2 1 2.675781 1 3.5 L 1 11.5 C 1 12.324219 1.675781 13 2.5 13 L 13.5 13 C 14.324219 13 15 12.324219 15 11.5 L 15 3.5 C 15 2.675781 14.324219 2 13.5 2 Z M 2.5 3 L 13.5 3 C 13.535156 3 13.5625 3.011719 13.59375 3.019531 L 8 6.890625 L 2.40625 3.019531 C 2.4375 3.011719 2.464844 3 2.5 3 Z M 2 3.953125 L 8 8.109375 L 14 3.953125 L 14 11.035156 L 10.859375 8.40625 L 10 9 L 13.574219 11.984375 C 13.550781 11.988281 13.527344 12 13.5 12 L 2.5 12 C 2.472656 12 2.449219 11.988281 2.425781 11.984375 L 6 9 L 5.140625 8.40625 L 2 11.035156 Z"/></svg>